<svg xmlns="http://www.w3.org/2000/svg" xmlns:xlink="http://www.w3.org/1999/xlink" width="24" height="24" viewBox="0 0 24 24"><defs><style>.cls-1{fill:none;stroke:#000;stroke-linecap:round;stroke-linejoin:round;stroke-width:2px;}</style><symbol id="Learning_Path_Dark" data-name="Learning Path Dark" viewBox="0 0 20 20"><path d="M15.44,2.42a6.44,6.44,0,0,1,.12-.85,2,2,0,0,1,2-1.57,2.4,2.4,0,0,1,2.39,2A3.5,3.5,0,0,1,20,2.6V17a3,3,0,0,1-.68,2,2.73,2.73,0,0,1-1.6,1,4.43,4.43,0,0,1-.81.07H.66C.19,20,0,19.84,0,19.33Q0,11.2,0,3.05a1.21,1.21,0,0,1,0-.19c0-.3.14-.43.43-.44h15ZM13.6,19.14v.07h3.48a2.11,2.11,0,0,0,2-1.45,1.71,1.71,0,0,0-1.06-2.24,1.33,1.33,0,0,0-1.67.61,1.09,1.09,0,0,0,.27,1.44A.82.82,0,0,0,18,17.11c0-.07,0-.13,0-.19a.34.34,0,0,1,.4-.29c.2,0,.3.13.32.37a1.37,1.37,0,0,1-.53,1.16,1.64,1.64,0,0,1-2.11-.05,1.78,1.78,0,0,1-.65-1.44V10.35a.61.61,0,0,0-.17-.49L10.56,5.11,10.33,5c-.09.11-.16.22-.25.31C9.4,6,8.72,6.63,8,7.31c-.27.27-.46.27-.73,0-.94-.93-1.88-1.87-2.81-2.81-.26-.26-.26-.41,0-.66s.4-.41.61-.62c-.54-.07-4,0-4.3,0A34.32,34.32,0,0,0,.85,7.49l.27-.29c.53-.53,1.07-1,1.57-1.58.3-.31.52-.3.82,0,.89.91,1.8,1.81,2.7,2.71.32.32.32.47,0,.78s-.55.55-.83.83a1.22,1.22,0,0,1-.17.15.4.4,0,0,1-.5-.06.35.35,0,0,1,0-.49c.18-.2.38-.39.57-.59l.17-.19L3,6.35.91,8.48a.49.49,0,0,0-.13.42v4.26c0,.08,0,.16,0,.29l1.52-1.52a2.34,2.34,0,0,1,.23-.22.37.37,0,0,1,.49,0,.35.35,0,0,1,.05.49,2.34,2.34,0,0,1-.22.23c-.63.63-1.26,1.27-1.9,1.9a.54.54,0,0,0-.2.47c0,1.16,0,2.32,0,3.48,0,.08,0,.16,0,.28.53-.53,1-1,1.52-1.52l3.46-3.45c.28-.28.47-.28.75,0l1.27,1.27a.76.76,0,0,1,.19.25.36.36,0,0,1,0,.25.37.37,0,0,1-.63.12c-.25-.23-.48-.48-.72-.72l-.42-.41L1.41,19.2h9.64L9.84,18c-.11-.11-.23-.21-.33-.33a.33.33,0,0,1,0-.49.37.37,0,0,1,.52-.05,1.2,1.2,0,0,1,.23.22L12,19c.26.25.37.25.62,0l1.05-1a1.13,1.13,0,0,1,.27-.22.36.36,0,0,1,.46,0,.37.37,0,0,1,0,.47,1.11,1.11,0,0,1-.2.24Zm5.61-3.83c0-.1,0-.15,0-.2,0-4.23,0-8.46,0-12.69A1.74,1.74,0,0,0,18,.81a1.34,1.34,0,0,0-1.73,1.31V14.81c0,.08,0,.17,0,.28A2.33,2.33,0,0,1,19.21,15.31ZM7.7,6.55c.06-.07.16-.15.25-.24L9.88,4.38l.17-.17c.25-.24.44-.23.7,0l.19.19,4.25,4.25.27.24V3.19H6.35a.51.51,0,0,0-.24.1c-.3.28-.58.58-.84.83Z"/><path d="M14.33,15.06a1.35,1.35,0,0,1-.19.33c-.49.5-1,1-1.49,1.49a.45.45,0,0,1-.69,0l-.17-.17L7.73,12.66c-.43-.44-.43-.56,0-1s.88-.89,1.33-1.32c.28-.29.43-.29.72,0l4.3,4.3C14.19,14.76,14.33,14.86,14.33,15.06ZM8.39,12.18c.28.36,3.68,3.74,3.92,3.9l1-1L9.43,11.15Z"/><path d="M13.73,11a1.29,1.29,0,0,1,0-.29.37.37,0,0,1,.41-.23.35.35,0,0,1,.33.33c0,.4,0,.81,0,1.21,0,.24-.14.34-.39.35s-.78,0-1.17,0a.34.34,0,0,1-.37-.36c0-.2.12-.33.37-.36l.24,0c0-.18-.18-.25-.27-.35s-.17-.16-.24-.25a.36.36,0,0,1,.52-.51Z"/><path d="M3.36,10.89c0-.38.17-.54.44-.51a.51.51,0,0,1,.36.76.33.33,0,0,1-.44.11C3.53,11.15,3.37,11,3.36,10.89Z"/><path d="M11.32,9.51c-.28,0-.58-.45-.46-.68a.34.34,0,0,1,.57-.13,1.8,1.8,0,0,1,.19.2.3.3,0,0,1,.06.36A.46.46,0,0,1,11.32,9.51Z"/><path d="M12.32,10.51c-.28,0-.58-.45-.46-.68a.34.34,0,0,1,.57-.13,1.8,1.8,0,0,1,.19.2.3.3,0,0,1,.06.36A.46.46,0,0,1,12.32,10.51Z"/><path d="M10.1,8.26a.7.7,0,0,1-.52-.46.39.39,0,0,1,.23-.4.26.26,0,0,1,.32,0,1.43,1.43,0,0,1,.27.28A.38.38,0,0,1,10.1,8.26Z"/><path d="M2.19,9.67a.34.34,0,0,1,.35-.38.58.58,0,0,1,.52.49.36.36,0,0,1-.36.38A.55.55,0,0,1,2.19,9.67Z"/><path d="M7.62,9.68a.34.34,0,0,1,.35.38.59.59,0,0,1-.52.48.34.34,0,0,1-.35-.38A.54.54,0,0,1,7.62,9.68Z"/><path d="M6.72,11.29a.58.58,0,0,1-.51.5.34.34,0,0,1-.35-.38.55.55,0,0,1,.51-.49A.34.34,0,0,1,6.72,11.29Z"/><path d="M4.61,12A.36.36,0,0,1,5,11.63a.6.6,0,0,1,.51.5.35.35,0,0,1-.36.37A.54.54,0,0,1,4.61,12Z"/><path d="M8.87,8.43a.38.38,0,0,1,.35.42.77.77,0,0,1-.45.45.35.35,0,0,1-.42-.39A.54.54,0,0,1,8.87,8.43Z"/><path class="cls-1" d="M12.93,10.77"/><path class="cls-1" d="M10.12,7.88"/><path class="cls-1" d="M9.75,17.22"/></symbol></defs><title>Asset 1</title><g id="Layer_2" data-name="Layer 2"><g id="Layer_2-2" data-name="Layer 2"><use width="20" height="20" xlink:href="#Learning_Path_Dark"/></g></g></svg>