<?xml version="1.0" encoding="utf-8"?>
<!-- Generator: Adobe Illustrator 24.0.1, SVG Export Plug-In . SVG Version: 6.00 Build 0)  -->
<svg version="1.1" id="Layer_1" xmlns="http://www.w3.org/2000/svg" xmlns:xlink="http://www.w3.org/1999/xlink" x="0px" y="0px"
	 viewBox="0 0 90 71.1" style="enable-background:new 0 0 90 71.1;" xml:space="preserve">
<g>
	<path d="M83.5,28.4c-3.7,0-6.6,2.9-6.6,6.6c0,1.4,0.5,2.8,1.3,3.8c-2.9,2.9-7.3,6.1-12.6,6.4c-6.3,0.3-12.7-3.4-19-11.2
		c-7-8.7-14.3-12.9-21.8-12.4c-6.6,0.4-11.9,4.2-15.2,7.5c-0.9-0.4-1.8-0.6-2.8-0.6C3,28.4,0,31.3,0,35c0,3.6,3,6.6,6.6,6.6
		c3.7,0,6.6-2.9,6.6-6.6c0-1.4-0.5-2.7-1.3-3.8c3-2.9,7.4-6.1,12.8-6.4c6.4-0.4,12.8,3.4,19.1,11.2c6.7,8.3,13.7,12.5,20.8,12.5
		c0.3,0,0.7,0,1,0c6.5-0.4,11.7-4.2,15-7.5c0.8,0.4,1.8,0.6,2.8,0.6c3.7,0,6.6-2.9,6.6-6.6C90.2,31.3,87.2,28.4,83.5,28.4z"/>
	<ellipse cx="24.4" cy="6.6" rx="6.6" ry="6.6"/>
	<ellipse cx="63.7" cy="64.5" rx="6.6" ry="6.6"/>
</g>
</svg>
